<?xml version="1.0" encoding="utf-8"?>
<!-- Generator: Adobe Illustrator 24.2.3, SVG Export Plug-In . SVG Version: 6.00 Build 0)  -->
<svg version="1.1" id="Capa_1" xmlns="http://www.w3.org/2000/svg" xmlns:xlink="http://www.w3.org/1999/xlink" x="0px" y="0px"
	 viewBox="0 0 512 512" style="enable-background:new 0 0 512 512;" xml:space="preserve">
<style type="text/css">
	.st0{fill:none;stroke:#556068;stroke-width:40;stroke-miterlimit:10;}
	.st1{fill:none;stroke:#556068;stroke-width:30;stroke-miterlimit:10;}
	.st2{fill:#556068;}
	.st3{fill:#FFFFFF;}
</style>
<g>
	<circle class="st0" cx="241.2" cy="248" r="207.1"/>
	<circle class="st1" cx="391.2" cy="384.4" r="86.8"/>
	<g>
		<path class="st2" d="M198,202.4c0.6,3.7,2.1,6.1,3.5,7.6c3.4,22.4,22.1,43.2,39.2,43.2c20,0,38.2-22.5,41.7-43.2
			c1.4-1.5,2.9-3.8,3.5-7.6c1.1-4.2,2.6-11.5,0-14.9c-0.1-0.2-0.3-0.3-0.4-0.5c2.4-8.8,5.5-27-5.5-39.4c-1-1.2-7.1-8.6-20.2-12.4
			l-6.2-2.2c-10.3-3.2-16.8-3.9-17.1-3.9c-0.5,0-1,0-1.4,0.1s-1.6,0.4-2.5,0.3c-2.5-0.4-6.2,0.9-6.8,1.2C225,131,205,139,199,157.6
			c-0.6,1.5-3,9.4,0.2,28.8c-0.5,0.3-0.9,0.7-1.3,1.2C195.4,190.9,196.8,198.2,198,202.4z"/>
		<path class="st2" d="M304.6,260.3c0,0-0.8-0.3-2.1-0.7c-8.6-4-16.7-6.6-16.7-6.6c-1.8-0.6-3.3-1.2-4.7-1.9
			c-5.8-2.9-10.7-6.1-11.7-9.2c0,0,3.4,32.6-25.1,33.3l-3.9-0.2c-25.8-2.3-27.5-33.2-27.5-33.2c-2.7,8.5-35.1,18.3-35.1,18.3
			c-9.7,3.7-13.7,9.3-13.7,9.3c-14.3,21.2-15.9,68.2-15.9,68.2c0.2,10.8,4.8,11.9,4.8,11.9c32.8,14.6,84.2,17.2,84.2,17.2
			c2.8,0.1,5.4-0.1,7.9-0.2l0.1,0.3c0,0,51.5-2.6,84.2-17.2c0,0,4.6-1.1,4.8-11.8c0,0-1.7-47.1-16-68.2
			C318.3,269.5,314.2,264,304.6,260.3z"/>
	</g>
	<circle class="st3" cx="391.2" cy="384.4" r="86.8"/>
	<path class="st2" d="M446.3,372l-56.6,56.6c-3.2,3.2-7.5,5-12,5c-4.5,0-8.8-1.8-12-5L336,398.8c-6.6-6.6-6.6-17.4,0-24.1
		c6.6-6.6,17.4-6.6,24.1,0l17.7,17.7l44.5-44.5c6.6-6.6,17.4-6.6,24.1,0C453,354.5,453,365.3,446.3,372z"/>
</g>
</svg>
