<?xml version="1.0" encoding="utf-8"?>
<!-- Generator: Adobe Illustrator 25.0.1, SVG Export Plug-In . SVG Version: 6.00 Build 0)  -->
<svg version="1.1" id="Layer_1" xmlns="http://www.w3.org/2000/svg" xmlns:xlink="http://www.w3.org/1999/xlink" x="0px" y="0px"
	 viewBox="0 0 24 24" style="enable-background:new 0 0 24 24;" xml:space="preserve">
<style type="text/css">
	.st0{fill:#EAEAEA;}
	.st1{fill:#FAB7B7;}
	.st2{fill:#24BB64;}
	.st3{fill:#2F2E41;}
	.st4{fill:#FFFFFF;}
</style>
<g>
	<path class="st0" d="M22.6,12c0,3.7-1.9,7.2-5.1,9.1c-0.2,0.1-0.4,0.2-0.6,0.3c-0.3,0.2-0.6,0.3-0.9,0.4v0c-0.1,0-0.2,0.1-0.3,0.1
		c0,0-0.1,0-0.1,0.1c-1.2,0.4-2.4,0.6-3.6,0.6c-0.8,0-1.6-0.1-2.4-0.3c-0.4-0.1-0.8-0.2-1.2-0.4h0c-0.5-0.2-1-0.4-1.5-0.7
		c-0.1-0.1-0.2-0.1-0.4-0.2c-0.1,0-0.2-0.1-0.2-0.2c-5-3.2-6.5-9.7-3.3-14.7S12.6-0.2,17.6,3C20.7,4.9,22.6,8.3,22.6,12z"/>
	<path class="st1" d="M10.7,10.4c0,0,0.1,1.6-0.3,2c-0.4,0.4,1.9,1.7,1.9,1.7l1.3-2.1c0,0-0.5-0.9-0.4-1.6L10.7,10.4z"/>
	<circle class="st1" cx="11.8" cy="9.1" r="2.3"/>
	<path class="st2" d="M15.6,21.5c0,0.2,0,0.4,0,0.5c0,0-0.1,0-0.1,0.1c-1.2,0.4-2.4,0.6-3.6,0.6c-0.8,0-1.6-0.1-2.4-0.3
		c-0.4-0.1-0.8-0.2-1.2-0.4l0,0c0,0,0,0,0,0c0-0.2,0.1-0.4,0.1-0.6v0c0.1-0.2,0.1-0.4,0.2-0.7c0.1-0.3,0.1-0.8,0.1-1.4
		c0,0,0-0.1,0-0.1c0-0.2,0-0.3,0-0.5c0-0.3,0-0.6,0-0.6l-1.4-3.7l3.4-2.5c0.2,0.6,0.6,0.6,0.6,0.6c1.8,0.1,2.1-1.1,2.1-1.2v0
		l3.2,2.1l-1.3,3.2c0,0,0.1,0.5,0.1,1.4c0,0.1,0,0.3,0,0.4C15.5,19.4,15.6,20.4,15.6,21.5z"/>
	<path class="st1" d="M8.7,18.8l-0.1,0.5l0,0.1l-0.3,2.1l0,0v0L8.3,22l0,0c0,0,0,0,0,0c-0.5-0.2-1-0.4-1.5-0.7
		c-0.1-0.1-0.2-0.1-0.4-0.2c0.1-0.2,0.2-0.5,0.3-0.7L6.9,19L7,18.5l1.7,0.3L8.7,18.8z"/>
	<path class="st2" d="M8.1,14.4l-0.9,0.1c0,0-0.6,4.5-0.4,4.5s2.3,0.5,2.4,0.4C9.3,19.2,8.1,14.4,8.1,14.4z"/>
	<path class="st3" d="M10,6.8L9.6,6.6c0,0,0.9-0.9,2.1-0.8l-0.3-0.3c0,0,0.8-0.3,1.6,0.5c0.4,0.4,0.8,0.9,1.1,1.4h0.4l-0.2,0.4
		l0.6,0.4l-0.7-0.1c0.1,0.3,0,0.6-0.1,0.9l-0.1,0.4c0,0-0.6-1.2-0.6-1.3v0.4c0,0-0.4-0.3-0.4-0.6l-0.2,0.3l-0.1-0.4l-1.4,0.4
		l0.2-0.3l-0.9,0.1L11,7.5c0,0-1,0.5-1,0.9c0,0.4-0.5,0.9-0.5,0.9L9.3,9C9.3,9,8.9,7.3,10,6.8z"/>
	<path class="st1" d="M17.5,21.1c-0.2,0.1-0.4,0.2-0.6,0.3c-0.3,0.2-0.6,0.3-0.9,0.4v0c-0.1,0-0.2,0.1-0.3,0.1c0,0-0.1,0-0.1,0.1
		l0.1-0.6l-0.4-2.9l-0.1-0.4l0.2,0l2.1-0.4v2.6C17.5,20.4,17.5,20.7,17.5,21.1z"/>
	<path class="st2" d="M15.3,13.4l1.2,0.2c0,0,1.5,4.5,1.1,4.7c-0.4,0.2-2.8,0.3-2.8,0.3L15.3,13.4z"/>
	<circle class="st2" cx="19.7" cy="4.4" r="3.1"/>
	<path class="st4" d="M21.4,3.4l-0.3-0.3c0,0,0,0,0,0c0,0,0,0,0,0l-1.8,1.8l-0.7-0.7c0,0-0.1,0-0.1,0c0,0,0,0,0,0l-0.3,0.3
		c0,0,0,0.1,0,0.1c0,0,0,0,0,0l0.8,0.8c0,0,0.1,0.1,0.2,0.1c0.1,0,0.1,0,0.2-0.1l0,0L21.4,3.4C21.5,3.4,21.5,3.4,21.4,3.4L21.4,3.4z
		"/>
</g>
</svg>
